<mxfile host="Electron" agent="Mozilla/5.0 (Windows NT 10.0; Win64; x64) AppleWebKit/537.36 (KHTML, like Gecko) draw.io/28.1.2 Chrome/138.0.7204.243 Electron/37.4.0 Safari/537.36" version="28.1.2">
  <diagram name="Sida-1" id="7wsPGlEba5Q6BENOVf_N">
    <mxGraphModel dx="1272" dy="1029" grid="0" gridSize="10" guides="1" tooltips="1" connect="1" arrows="1" fold="1" page="0" pageScale="1" pageWidth="827" pageHeight="1169" background="#ffffff" math="0" shadow="0">
      <root>
        <mxCell id="0" />
        <mxCell id="1" parent="0" />
        <mxCell id="nuwzMKd_bg0ozyiA0sp2-1" value="&lt;b&gt;Customer&lt;/b&gt;" style="ellipse;whiteSpace=wrap;html=1;fillColor=#f5f5f5;fontColor=#333333;strokeColor=#666666;" vertex="1" parent="1">
          <mxGeometry x="-242" y="-152" width="132" height="70" as="geometry" />
        </mxCell>
        <mxCell id="nuwzMKd_bg0ozyiA0sp2-2" value="&lt;b&gt;Client Console App&lt;/b&gt;" style="rounded=0;whiteSpace=wrap;html=1;fillColor=#f5f5f5;strokeColor=#666666;fontColor=#333333;fillStyle=auto;" vertex="1" parent="1">
          <mxGeometry x="-43" y="-152" width="120" height="69" as="geometry" />
        </mxCell>
        <mxCell id="nuwzMKd_bg0ozyiA0sp2-3" value="" style="endArrow=classic;html=1;rounded=0;fontSize=12;startSize=8;endSize=8;curved=1;exitX=1;exitY=0.5;exitDx=0;exitDy=0;strokeColor=#000000;" edge="1" parent="1" source="nuwzMKd_bg0ozyiA0sp2-1" target="nuwzMKd_bg0ozyiA0sp2-2">
          <mxGeometry width="50" height="50" relative="1" as="geometry">
            <mxPoint x="138" y="58" as="sourcePoint" />
            <mxPoint x="188" y="8" as="targetPoint" />
          </mxGeometry>
        </mxCell>
        <mxCell id="nuwzMKd_bg0ozyiA0sp2-4" value="&lt;font style=&quot;color: rgb(0, 0, 0);&quot;&gt;Uses&lt;/font&gt;" style="text;html=1;align=center;verticalAlign=middle;resizable=0;points=[];autosize=1;strokeColor=none;fillColor=none;fontSize=16;" vertex="1" parent="1">
          <mxGeometry x="-115" y="-155" width="54" height="31" as="geometry" />
        </mxCell>
        <mxCell id="nuwzMKd_bg0ozyiA0sp2-5" value="&lt;b&gt;IT API (Asp.net core)&lt;/b&gt;" style="rounded=0;whiteSpace=wrap;html=1;fillColor=#f5f5f5;fontColor=#333333;strokeColor=#666666;" vertex="1" parent="1">
          <mxGeometry x="235" y="-152" width="132" height="68.5" as="geometry" />
        </mxCell>
        <mxCell id="nuwzMKd_bg0ozyiA0sp2-6" value="" style="endArrow=classic;html=1;rounded=0;fontSize=12;startSize=8;endSize=8;curved=1;exitX=1;exitY=0.5;exitDx=0;exitDy=0;entryX=0;entryY=0.5;entryDx=0;entryDy=0;strokeColor=#000000;" edge="1" parent="1" source="nuwzMKd_bg0ozyiA0sp2-2" target="nuwzMKd_bg0ozyiA0sp2-5">
          <mxGeometry width="50" height="50" relative="1" as="geometry">
            <mxPoint x="138" y="58" as="sourcePoint" />
            <mxPoint x="188" y="8" as="targetPoint" />
          </mxGeometry>
        </mxCell>
        <mxCell id="nuwzMKd_bg0ozyiA0sp2-7" value="&lt;font style=&quot;color: rgb(0, 0, 0);&quot;&gt;HTTP Request (REST)&lt;/font&gt;" style="text;html=1;align=center;verticalAlign=middle;resizable=0;points=[];autosize=1;strokeColor=none;fillColor=none;fontSize=14;rotation=0;" vertex="1" parent="1">
          <mxGeometry x="79" y="-147" width="161" height="29" as="geometry" />
        </mxCell>
        <mxCell id="nuwzMKd_bg0ozyiA0sp2-8" value="&lt;font style=&quot;color: rgb(0, 0, 0);&quot;&gt;&lt;b&gt;MQTT Broker&lt;/b&gt;&lt;/font&gt;" style="ellipse;whiteSpace=wrap;html=1;fillColor=#f5f5f5;fontColor=#333333;strokeColor=#666666;" vertex="1" parent="1">
          <mxGeometry x="106" y="74" width="120" height="62" as="geometry" />
        </mxCell>
        <mxCell id="nuwzMKd_bg0ozyiA0sp2-9" value="&lt;font&gt;&lt;b&gt;Database SQL Server&lt;/b&gt;&lt;/font&gt;" style="rounded=0;whiteSpace=wrap;html=1;fillColor=#f5f5f5;fontColor=#333333;strokeColor=#666666;" vertex="1" parent="1">
          <mxGeometry x="480" y="-152" width="132" height="69" as="geometry" />
        </mxCell>
        <mxCell id="nuwzMKd_bg0ozyiA0sp2-10" value="" style="endArrow=classic;html=1;rounded=0;fontSize=12;startSize=8;endSize=8;curved=1;exitX=1;exitY=0.5;exitDx=0;exitDy=0;entryX=0;entryY=0.5;entryDx=0;entryDy=0;strokeColor=#000000;" edge="1" parent="1" source="nuwzMKd_bg0ozyiA0sp2-5" target="nuwzMKd_bg0ozyiA0sp2-9">
          <mxGeometry width="50" height="50" relative="1" as="geometry">
            <mxPoint x="182" y="58" as="sourcePoint" />
            <mxPoint x="232" y="8" as="targetPoint" />
          </mxGeometry>
        </mxCell>
        <mxCell id="nuwzMKd_bg0ozyiA0sp2-11" value="&lt;font style=&quot;color: rgb(0, 0, 0); font-size: 14px;&quot;&gt;EF Core/SQL&lt;/font&gt;" style="text;html=1;align=center;verticalAlign=middle;resizable=0;points=[];autosize=1;strokeColor=none;fillColor=none;fontSize=16;" vertex="1" parent="1">
          <mxGeometry x="373" y="-148" width="102" height="31" as="geometry" />
        </mxCell>
        <mxCell id="nuwzMKd_bg0ozyiA0sp2-12" value="" style="endArrow=classic;html=1;rounded=0;fontSize=12;startSize=8;endSize=8;curved=1;exitX=0.174;exitY=0.978;exitDx=0;exitDy=0;entryX=0.283;entryY=0;entryDx=0;entryDy=0;entryPerimeter=0;exitPerimeter=0;strokeColor=#000000;" edge="1" parent="1" source="nuwzMKd_bg0ozyiA0sp2-5" target="nuwzMKd_bg0ozyiA0sp2-8">
          <mxGeometry width="50" height="50" relative="1" as="geometry">
            <mxPoint x="182" y="58" as="sourcePoint" />
            <mxPoint x="232" y="8" as="targetPoint" />
          </mxGeometry>
        </mxCell>
        <mxCell id="nuwzMKd_bg0ozyiA0sp2-13" value="&lt;font style=&quot;color: rgb(0, 0, 0); font-size: 14px;&quot;&gt;Publishes orders/paid&lt;/font&gt;" style="text;html=1;align=center;verticalAlign=middle;resizable=0;points=[];autosize=1;strokeColor=none;fillColor=none;fontSize=16;rotation=-50;" vertex="1" parent="1">
          <mxGeometry x="100" y="-29" width="153" height="31" as="geometry" />
        </mxCell>
        <mxCell id="nuwzMKd_bg0ozyiA0sp2-14" value="" style="endArrow=classic;html=1;rounded=0;fontSize=12;startSize=8;endSize=8;curved=1;exitX=0.75;exitY=1;exitDx=0;exitDy=0;entryX=1;entryY=0;entryDx=0;entryDy=0;strokeColor=#000000;" edge="1" parent="1" source="nuwzMKd_bg0ozyiA0sp2-5" target="nuwzMKd_bg0ozyiA0sp2-8">
          <mxGeometry width="50" height="50" relative="1" as="geometry">
            <mxPoint x="182" y="58" as="sourcePoint" />
            <mxPoint x="232" y="8" as="targetPoint" />
          </mxGeometry>
        </mxCell>
        <mxCell id="nuwzMKd_bg0ozyiA0sp2-15" value="&lt;font style=&quot;color: rgb(0, 0, 0); font-size: 14px;&quot;&gt;Subscribes orders/processed&lt;/font&gt;&lt;div&gt;&lt;font style=&quot;color: rgb(0, 0, 0); font-size: 14px;&quot;&gt;(update Db)&lt;/font&gt;&lt;/div&gt;" style="text;html=1;align=center;verticalAlign=middle;resizable=0;points=[];autosize=1;strokeColor=none;fillColor=none;fontSize=16;rotation=-54;" vertex="1" parent="1">
          <mxGeometry x="198" y="-11" width="199" height="50" as="geometry" />
        </mxCell>
        <mxCell id="nuwzMKd_bg0ozyiA0sp2-16" value="&lt;font style=&quot;color: rgb(0, 0, 0);&quot;&gt;&lt;b&gt;Integration MQTT&lt;/b&gt;&lt;/font&gt;" style="rounded=0;whiteSpace=wrap;html=1;fillColor=#f5f5f5;fontColor=#333333;strokeColor=#666666;" vertex="1" parent="1">
          <mxGeometry x="-211" y="76" width="120" height="60" as="geometry" />
        </mxCell>
        <mxCell id="nuwzMKd_bg0ozyiA0sp2-17" value="" style="endArrow=classic;html=1;rounded=0;fontSize=12;startSize=8;endSize=8;curved=1;exitX=1;exitY=0.5;exitDx=0;exitDy=0;entryX=0;entryY=0.5;entryDx=0;entryDy=0;strokeColor=#000000;" edge="1" parent="1" source="nuwzMKd_bg0ozyiA0sp2-16" target="nuwzMKd_bg0ozyiA0sp2-8">
          <mxGeometry width="50" height="50" relative="1" as="geometry">
            <mxPoint x="160" y="28" as="sourcePoint" />
            <mxPoint x="210" y="-22" as="targetPoint" />
          </mxGeometry>
        </mxCell>
        <mxCell id="nuwzMKd_bg0ozyiA0sp2-18" value="&lt;font style=&quot;color: rgb(0, 0, 0); font-size: 14px;&quot;&gt;Subscribes orders/paid&lt;/font&gt;&lt;div&gt;&lt;font style=&quot;color: rgb(0, 0, 0); font-size: 14px;&quot;&gt;Publishes orders/forward&lt;/font&gt;&lt;/div&gt;" style="text;html=1;align=center;verticalAlign=middle;resizable=0;points=[];autosize=1;strokeColor=none;fillColor=none;fontSize=16;" vertex="1" parent="1">
          <mxGeometry x="-82" y="106" width="173" height="50" as="geometry" />
        </mxCell>
        <mxCell id="nuwzMKd_bg0ozyiA0sp2-19" value="&lt;font style=&quot;color: rgb(0, 0, 0);&quot;&gt;&lt;b&gt;OT Segment&lt;/b&gt;&lt;/font&gt;" style="rounded=0;whiteSpace=wrap;html=1;fillColor=#f5f5f5;fontColor=#333333;strokeColor=#666666;" vertex="1" parent="1">
          <mxGeometry x="492" y="75" width="120" height="60" as="geometry" />
        </mxCell>
        <mxCell id="nuwzMKd_bg0ozyiA0sp2-20" value="" style="endArrow=classic;html=1;rounded=0;fontSize=12;startSize=8;endSize=8;curved=1;entryX=1;entryY=0.5;entryDx=0;entryDy=0;exitX=0;exitY=0.5;exitDx=0;exitDy=0;strokeColor=#000000;" edge="1" parent="1" source="nuwzMKd_bg0ozyiA0sp2-19" target="nuwzMKd_bg0ozyiA0sp2-8">
          <mxGeometry width="50" height="50" relative="1" as="geometry">
            <mxPoint x="487" y="105" as="sourcePoint" />
            <mxPoint x="210" y="-22" as="targetPoint" />
          </mxGeometry>
        </mxCell>
        <mxCell id="nuwzMKd_bg0ozyiA0sp2-21" value="&lt;font style=&quot;color: rgb(0, 0, 0); font-size: 14px;&quot;&gt;Subscribes orders/forward&lt;/font&gt;&lt;div&gt;&lt;font style=&quot;color: rgb(0, 0, 0); font-size: 14px;&quot;&gt;Publishes orders/processed&lt;/font&gt;&lt;/div&gt;" style="text;html=1;align=center;verticalAlign=middle;resizable=0;points=[];autosize=1;strokeColor=none;fillColor=none;fontSize=16;" vertex="1" parent="1">
          <mxGeometry x="264" y="106" width="191" height="50" as="geometry" />
        </mxCell>
      </root>
    </mxGraphModel>
  </diagram>
</mxfile>
